<svg id="Capa_1" enable-background="new 0 0 512.002 512.002" fill="#eb5160ff" height="512" viewBox="0 0 512.002 512.002" width="512" xmlns="http://www.w3.org/2000/svg"><g><path d="m478.945 227.394h-.906c-.09-33.142-22.687-61.626-53.607-70.19-2.757-55.188-48.522-99.239-104.382-99.239-31.082 0-59.883 13.518-79.602 36.785-10.229-5.225-21.638-8.013-33.25-8.013-13.191 0-25.568 3.529-36.261 9.672l-57.839-89.546c-4.337-6.715-13.177-8.849-20.1-4.852l-67.439 38.936c-6.922 3.996-9.495 12.72-5.848 19.833l68.744 134.106c-4.939 9.812-7.733 20.859-7.764 32.507h-.906c-8.284 0-15 6.716-15 15v119.557c0 82.739 67.313 150.052 150.052 150.052h129.057c82.739 0 150.052-67.313 150.052-150.052v-119.556c-.001-8.285-6.716-15-15.001-15zm-384.16 30h369.161v40.773h-369.161zm.855-222.267 52.664 81.531c-8.405 11.451-13.571 25.419-14.094 40.555-9.182 2.545-17.614 6.849-24.948 12.499l-56.345-109.919zm55.328 149.531c4.251-.268 8.188-2.329 10.829-5.671 2.641-3.343 3.736-7.649 3.013-11.847-.427-2.479-.644-4.958-.644-7.37 0-23.729 19.305-43.034 43.034-43.034 9.988 0 19.719 3.499 27.401 9.852 3.33 2.753 7.687 3.935 11.95 3.249 4.265-.688 8.027-3.184 10.321-6.845 13.742-21.934 37.36-35.028 63.18-35.028 41.087 0 74.513 33.426 74.513 74.513 0 1.813-.088 3.792-.27 6.051-.32 3.986.964 7.936 3.569 10.97 2.604 3.035 6.313 4.904 10.302 5.192 22.296 1.611 39.776 20.35 39.878 42.704h-337.357c.103-22.567 17.759-41.321 40.281-42.736zm192.926 297.344h-129.057c-66.197 0-120.052-53.854-120.052-120.052v-33.783h369.161v33.783c-.001 66.197-53.855 120.052-120.052 120.052z"/><ellipse cx="335.378" cy="150.872" rx="13.685" ry="13.685" transform="matrix(.383 -.924 .924 .383 67.647 402.985)"/><ellipse cx="279.365" cy="185.048" rx="13.685" ry="13.685" transform="matrix(.383 -.924 .924 .383 1.495 372.333)"/><ellipse cx="206.354" cy="171.363" rx="13.685" ry="13.685" transform="matrix(.383 -.924 .924 .383 -30.933 296.432)"/></g></svg>