<?xml version="1.0" encoding="iso-8859-1"?>
<!-- Generator: Adobe Illustrator 19.0.0, SVG Export Plug-In . SVG Version: 6.00 Build 0)  -->
<svg version="1.1" id="Capa_1" xmlns="http://www.w3.org/2000/svg" xmlns:xlink="http://www.w3.org/1999/xlink" x="0px" y="0px"
	 viewBox="0 0 512 512" style="enable-background:new 0 0 512 512;" xml:space="preserve">
<circle style="fill:#FF127F;" cx="256" cy="256" r="256"/>
<path style="fill:#B10853;" d="M509.329,292.994l-88.115-88.115c-6.895-7.763-16.515-14.963-26.444-21.177l-33.562-33.689
	c0,0-46.764-32.179-105.211-32.179s-105.208,32.179-105.208,32.179l3.076,14.641c-15.099,6.577-48.696,22.686-64.62,42.022
	l11.54,23.485c-13.551,15.149-34.278,42.871-43.161,78.55c-3.563,14.311-2.658,22.529,1.274,26.508l176.835,175.985
	C242.42,511.727,249.178,512,256,512C384.82,512,491.4,416.846,509.329,292.994z"/>
<path style="fill:#FEC000;" d="M113.469,217.344c0,0-42.099,36.166-55.843,91.366c-15.595,62.633,54.35,8.645,89.283-7.138
	L113.469,217.344z"/>
<g>
	<path style="fill:#FF9A00;" d="M398.531,217.344c0,0,42.099,36.166,55.843,91.366c15.595,62.633-54.35,8.645-89.283-7.138
		L398.531,217.344z"/>
	<path style="fill:#FF9A00;" d="M161.502,161.471c0,0-51.355,19.825-72.255,45.204l53.743,109.369l44.189-19L161.502,161.471z"/>
</g>
<path style="fill:#E67500;" d="M350.499,161.471c0,0,51.355,19.825,72.255,45.204l-53.744,109.37l-44.189-19L350.499,161.471z"/>
<path style="fill:#FEC000;" d="M361.209,150.012c0,0-46.764-32.179-105.211-32.179S150.79,150.012,150.79,150.012l34.008,161.87
	c0,0,31.815-14.457,71.202-14.457s71.202,14.457,71.202,14.457L361.209,150.012z"/>
<path style="fill:#FF9A00;" d="M361.212,150.016l-34.011,161.867c0,0-31.813-14.457-71.204-14.457V117.834
	C314.449,117.834,361.212,150.016,361.212,150.016z"/>
<g>
</g>
<g>
</g>
<g>
</g>
<g>
</g>
<g>
</g>
<g>
</g>
<g>
</g>
<g>
</g>
<g>
</g>
<g>
</g>
<g>
</g>
<g>
</g>
<g>
</g>
<g>
</g>
<g>
</g>
</svg>
