<svg id="Capa_1" enable-background="new 0 0 512 512" fill="#fff" height="512" viewBox="0 0 512 512" width="512" xmlns="http://www.w3.org/2000/svg"><path d="m494.5 447.876h-15.675v-84.737c7.77-3.604 13.175-11.475 13.175-20.589v-19.132c0-15.125-12.305-27.462-27.431-27.5l-21.994-.056v-15.098c7.838-3.024 13.423-10.618 13.423-19.509 0-9.711-7.385-28.614-20.923-28.614s-20.923 18.902-20.923 28.614c0 8.892 5.585 16.485 13.423 19.509v15.06l-44.418-.112v-62.155c11.441-3.269 19.843-13.812 19.843-26.288v-24.679c0-4.142-3.357-7.5-7.5-7.5s-7.5 3.358-7.5 7.5v24.678c0 6.806-5.537 12.343-12.344 12.343-6.806 0-12.343-5.537-12.343-12.343v-32.256c0-15.801-12.855-28.657-28.657-28.657-15.801 0-28.656 12.855-28.656 28.657v14.505c0 4.687-3.813 8.5-8.5 8.5s-8.5-3.813-8.5-8.5v-5.511c0-15.439-12.561-28-28-28s-28 12.561-28 28v59.263c0 6.806-5.537 12.343-12.343 12.343h-1.314c-6.806 0-12.343-5.537-12.343-12.343v-69.017c0-15.439-12.561-28-28-28s-28 12.561-28 28v7.904c0 7.444-6.056 13.5-13.5 13.5s-13.5-6.056-13.5-13.5v-52.058c0-6.893 5.607-12.5 12.5-12.5h239c6.893 0 12.5 5.607 12.5 12.5v19.502c0 4.142 3.357 7.5 7.5 7.5s7.5-3.358 7.5-7.5v-19.501c0-15.164-12.337-27.5-27.5-27.5h-14.225v-17.096c7.838-3.024 13.423-10.618 13.423-19.509 0-9.711-7.385-28.614-20.923-28.614s-20.923 18.902-20.923 28.614c0 8.892 5.585 16.485 13.423 19.509v17.095h-61.983c22.127-16.994 33.605-39.208 33.605-55.363 0-22.36-17.257-40.552-38.468-40.552-8.56 0-16.768 2.989-23.429 8.385-6.661-5.396-14.87-8.385-23.429-8.385-21.213 0-38.472 18.192-38.472 40.552 0 16.156 11.48 38.37 33.608 55.363h-61.984v-17.095c7.838-3.024 13.423-10.618 13.423-19.509 0-9.711-7.385-28.614-20.923-28.614s-20.923 18.902-20.923 28.614c0 8.892 5.585 16.485 13.423 19.509v17.095h-14.223c-15.163 0-27.5 12.336-27.5 27.5v52.058c0 12.697 8.348 23.478 19.843 27.152v85.76l-44.418-.112v-14.191c7.838-3.024 13.423-10.618 13.423-19.509 0-9.711-7.385-28.614-20.923-28.614s-20.923 18.902-20.923 28.614c0 8.892 5.585 16.485 13.423 19.509v14.153l-21.854-.055c-.024 0-.049 0-.073 0-7.331 0-14.225 2.85-19.418 8.029-5.21 5.197-8.079 12.111-8.079 19.47v52.058c0 10.076 5.261 18.941 13.175 24.01v49.446h-15.676c-9.649 0-17.5 7.851-17.5 17.5v2.329c0 20.739 16.873 37.612 37.612 37.612h436.775c20.739 0 37.612-16.873 37.612-37.612v-2.329c.001-9.649-7.85-17.5-17.499-17.5zm-59.425-200.096c2.202 1.445 5.923 8.581 5.923 13.476 0 3.266-2.657 5.923-5.923 5.923s-5.923-2.657-5.923-5.923c0-4.895 3.721-12.031 5.923-13.476zm-81.3-195.262c2.202 1.445 5.923 8.581 5.923 13.476 0 3.266-2.657 5.923-5.923 5.923s-5.923-2.657-5.923-5.923c.001-4.895 3.721-12.031 5.923-13.476zm-144.674-5.283c0-14.089 10.529-25.552 23.472-25.552 6.725 0 13.141 3.158 17.602 8.664 1.424 1.757 3.565 2.778 5.827 2.778 2.263 0 4.403-1.021 5.828-2.779 4.46-5.505 10.875-8.663 17.601-8.663 12.94 0 23.468 11.463 23.468 25.552 0 11.979-11.616 36.956-42.784 52.979-1.345.691-2.723 1.362-4.112 2.003-1.392-.642-2.769-1.313-4.11-2.002-31.175-16.024-42.792-41.001-42.792-52.98zm-50.876 5.283c2.202 1.445 5.923 8.581 5.923 13.476 0 3.266-2.657 5.923-5.923 5.923s-5.923-2.657-5.923-5.923c0-4.895 3.72-12.031 5.923-13.476zm-81.3 195.262c2.202 1.445 5.923 8.581 5.923 13.476 0 3.266-2.657 5.923-5.923 5.923s-5.923-2.657-5.923-5.923c0-4.895 3.721-12.031 5.923-13.476zm-41.925 74.582c0-3.345 1.305-6.488 3.673-8.85 2.36-2.354 5.493-3.65 8.826-3.65h.033l112.555.285h.019c4.134 0 7.489-3.346 7.5-7.481.011-4.142-3.339-7.509-7.481-7.519l-16.281-.041v-85.17c12.671-2.892 22.157-14.245 22.157-27.78v-7.904c0-7.168 5.832-13 13-13s13 5.832 13 13v69.017c0 15.077 12.266 27.343 27.343 27.343h1.314c15.077 0 27.343-12.266 27.343-27.343v-59.263c0-7.168 5.832-13 13-13s13 5.832 13 13v5.511c0 12.958 10.542 23.5 23.5 23.5s23.5-10.542 23.5-23.5v-14.505c0-7.53 6.127-13.657 13.657-13.657s13.656 6.126 13.656 13.657v32.256c0 12.476 8.403 23.02 19.844 26.289v62.117l-175.043-.443c-.006 0-.013 0-.019 0-4.134 0-7.489 3.345-7.5 7.481-.011 4.142 3.339 7.508 7.481 7.519l271.455.688c6.875.017 12.468 5.625 12.468 12.5v19.132c0 4.238-3.448 7.687-7.687 7.687h-8.255c-12.51 0-22.687 10.177-22.687 22.686v28.022c0 4.238-3.448 7.686-7.687 7.686h-3.999c-4.238 0-7.687-3.448-7.687-7.686v-2.255c0-12.509-10.177-22.687-22.687-22.687h-19.091c-4.238 0-7.687-3.448-7.687-7.686 0-12.509-10.177-22.687-22.687-22.687h-25.163c-12.51 0-22.687 10.177-22.687 22.687v79.558h-24.687v-92.6c0-15.801-12.855-28.657-28.657-28.657-15.801 0-28.656 12.855-28.656 28.657v26.505c0 4.687-3.813 8.5-8.5 8.5s-8.5-3.813-8.5-8.5v-5.511c0-15.439-12.561-28-28-28s-28 12.561-28 28v71.606h-26v-81.36c0-15.439-12.561-28-28-28s-28 12.561-28 28v7.904c0 7.444-6.056 13.5-13.5 13.5s-13.496-6.056-13.496-13.5zm124 125.514v-71.606c0-7.168 5.832-13 13-13s13 5.832 13 13v5.511c0 12.958 10.542 23.5 23.5 23.5s23.5-10.542 23.5-23.5v-26.505c0-7.53 6.127-13.657 13.657-13.657s13.656 6.126 13.656 13.657v92.6zm-110.825-44.964c.109.001.216.008.325.008 15.715 0 28.5-12.785 28.5-28.5v-7.904c0-7.168 5.832-13 13-13s13 5.832 13 13v81.36h-54.825zm-33.175 64.793v-2.329c0-1.378 1.121-2.5 2.5-2.5h269.333v27.441h-249.221c-12.468 0-22.612-10.144-22.612-22.612zm286.833-4.829h25v27.442h-25zm195.167 4.829c0 12.468-10.144 22.612-22.612 22.612h-132.555v-27.441h28.598c4.143 0 7.5-3.358 7.5-7.5s-3.357-7.5-7.5-7.5h-36.088c-.003 0-.006 0-.01 0h-20.333v-79.558c0-4.238 3.448-7.687 7.687-7.687h25.163c4.238 0 7.687 3.448 7.687 7.687 0 12.509 10.177 22.686 22.687 22.686h19.091c4.238 0 7.687 3.448 7.687 7.687v2.255c0 12.509 10.177 22.686 22.687 22.686h3.999c12.51 0 22.687-10.177 22.687-22.686v-28.022c0-4.238 3.448-7.686 7.687-7.686h2.767v82.639h-60.404c-4.143 0-7.5 3.358-7.5 7.5s3.357 7.5 7.5 7.5h91.075c1.379 0 2.5 1.122 2.5 2.5z"/></svg>